<svg width="354" height="145" viewBox="0 0 354 145" fill="none" xmlns="http://www.w3.org/2000/svg">
<rect y="8" width="354" height="137" rx="10" fill="#98C1FF"/>
<path d="M82.5524 65.1438C81.3592 64.9201 80.1288 64.8082 78.861 64.8082C76.5492 64.8082 74.3866 65.3116 72.3731 66.3183C70.3596 67.3251 68.6071 68.686 67.1156 70.4012C65.6614 72.1164 64.5055 74.0927 63.6479 76.3299C62.7903 78.5298 62.3615 80.823 62.3615 83.2093C62.3615 85.5957 62.8649 87.46 63.8717 88.8024C64.9157 90.1074 66.4258 90.7599 68.402 90.7599C69.3715 90.7599 70.3409 90.6108 71.3104 90.3125C72.3172 90.0142 73.268 89.4922 74.1629 88.7464C75.0577 87.9634 75.8781 86.938 76.6238 85.6703C77.3695 84.4025 77.9848 82.8178 78.4695 80.9162L82.5524 65.1438ZM89.0963 79.462C88.4997 81.8483 88.2014 83.8059 88.2014 85.3347C88.2387 86.8262 88.481 88.0193 88.9285 88.9142C89.3759 89.7718 90.0098 90.3684 90.8301 90.704C91.6504 91.0396 92.5826 91.2074 93.6267 91.2074C95.1927 91.2074 96.6655 90.7226 98.0452 89.7532C99.4621 88.7464 100.693 87.3482 101.737 85.5584C102.781 83.7686 103.601 81.6433 104.198 79.1823C104.831 76.7214 105.148 74.0367 105.148 71.1283C105.148 66.281 104.384 62.0117 102.855 58.3203C101.364 54.6289 99.257 51.5527 96.535 49.0917C93.8131 46.5935 90.5691 44.7292 86.8031 43.4987C83.0744 42.2309 78.9729 41.5971 74.4984 41.5971C69.5766 41.5971 65.0276 42.5292 60.8514 44.3936C56.6753 46.2207 53.0398 48.7375 49.945 51.9442C46.8874 55.1509 44.4824 58.9355 42.7299 63.2981C41.0148 67.6607 40.1572 72.3588 40.1572 77.3926C40.1572 83.5076 41.108 88.8956 43.0096 93.5565C44.9112 98.18 47.5213 102.058 50.8399 105.19C54.1584 108.285 58.0549 110.615 62.5293 112.181C67.041 113.747 71.907 114.53 77.1272 114.53C79.9983 114.53 82.6829 114.363 85.1812 114.027C87.6794 113.729 89.9725 113.3 92.0606 112.741C94.1487 112.219 96.0503 111.603 97.7655 110.895C99.4807 110.224 101.009 109.497 102.352 108.714C103.321 108.154 104.179 107.987 104.925 108.21C105.67 108.434 106.211 108.993 106.547 109.888L108.448 114.866C104.57 117.401 100.04 119.471 94.8571 121.074C89.6742 122.678 83.7642 123.479 77.1272 123.479C70.3782 123.479 64.1327 122.417 58.3905 120.291C52.6483 118.166 47.6705 115.108 43.457 111.119C39.2809 107.166 35.9997 102.338 33.6133 96.6326C31.2642 90.9277 30.0897 84.5144 30.0897 77.3926C30.0897 73.4028 30.593 69.525 31.5998 65.759C32.6438 61.993 34.1167 58.4694 36.0183 55.1882C37.9199 51.8696 40.2131 48.8307 42.8977 46.0715C45.5824 43.3123 48.5654 40.9445 51.8466 38.9683C55.1279 36.9921 58.6701 35.4634 62.4734 34.382C66.314 33.2634 70.3223 32.7041 74.4984 32.7041C79.7932 32.7041 84.8642 33.599 89.7115 35.3888C94.5961 37.1413 98.9028 39.6768 102.631 42.9953C106.397 46.2766 109.399 50.3036 111.636 55.0763C113.873 59.8118 114.992 65.1624 114.992 71.1283C114.992 75.118 114.395 78.8654 113.202 82.3704C112.046 85.838 110.406 88.8583 108.28 91.4311C106.192 94.0039 103.713 96.036 100.842 97.5275C98.0079 98.9817 94.9131 99.7088 91.5572 99.7088C88.9844 99.7088 86.7099 99.1122 84.7337 97.919C82.7575 96.7258 81.3965 94.8056 80.6508 92.1582C78.4509 94.8429 76.1204 96.7631 73.6595 97.919C71.1985 99.0749 68.5325 99.6529 65.6614 99.6529C63.3124 99.6529 61.2616 99.2427 59.5091 98.4224C57.7939 97.6021 56.3397 96.4835 55.1465 95.0666C53.9906 93.6124 53.1144 91.9158 52.5178 89.9769C51.9585 88.0007 51.6788 85.8567 51.6788 83.5449C51.6788 81.4195 51.9398 79.2755 52.4618 77.1129C53.0212 74.913 53.8415 72.8063 54.9228 70.7928C56.0041 68.742 57.3464 66.8403 58.9498 65.0879C60.5904 63.2981 62.492 61.7507 64.6547 60.4456C66.8546 59.1033 69.3156 58.0593 72.0375 57.3135C74.7967 56.5305 77.817 56.139 81.0982 56.139C84.0066 56.139 86.4862 56.3627 88.537 56.8102C90.5878 57.2576 92.564 57.8915 94.4656 58.7118L89.0963 79.462Z" fill="#1255B7"/>
<path d="M151.543 110.895C146.956 110.895 143.414 109.608 140.916 107.036C138.455 104.463 137.224 100.79 137.224 96.0174V62.0117H130.625C129.991 62.0117 129.45 61.8252 129.003 61.4524C128.592 61.0422 128.387 60.4456 128.387 59.6626V55.2441L137.616 53.9577L140.077 37.0108C140.226 36.3769 140.506 35.8922 140.916 35.5566C141.363 35.1837 141.923 34.9973 142.594 34.9973H148.131V54.0696H164.239V62.0117H148.131V95.2903C148.131 97.5275 148.672 99.2054 149.753 100.324C150.871 101.405 152.288 101.946 154.004 101.946C155.01 101.946 155.868 101.816 156.576 101.555C157.322 101.293 157.956 101.014 158.478 100.716C159 100.38 159.447 100.082 159.82 99.8207C160.193 99.5597 160.529 99.4291 160.827 99.4291C161.2 99.4291 161.48 99.5224 161.666 99.7088C161.89 99.8579 162.113 100.119 162.337 100.492L165.581 105.749C163.791 107.39 161.666 108.658 159.205 109.553C156.744 110.447 154.19 110.895 151.543 110.895ZM203.704 84.7754C199.267 84.9245 195.501 85.2787 192.406 85.838C189.311 86.3601 186.794 87.0685 184.855 87.9634C182.916 88.8583 181.518 89.921 180.661 91.1514C179.803 92.3446 179.374 93.687 179.374 95.1784C179.374 96.5953 179.598 97.8258 180.045 98.8698C180.53 99.8766 181.164 100.716 181.947 101.387C182.767 102.021 183.718 102.487 184.799 102.785C185.881 103.083 187.055 103.232 188.323 103.232C190.001 103.232 191.53 103.065 192.909 102.729C194.326 102.393 195.65 101.927 196.88 101.331C198.111 100.697 199.285 99.9325 200.404 99.0376C201.523 98.1427 202.623 97.1174 203.704 95.9615V84.7754ZM171.712 61.1168C174.881 58.0966 178.311 55.8407 182.003 54.3492C185.732 52.8577 189.814 52.112 194.252 52.112C197.496 52.112 200.367 52.6527 202.865 53.734C205.363 54.778 207.47 56.2508 209.185 58.1525C210.9 60.0541 212.187 62.3286 213.044 64.976C213.939 67.6234 214.387 70.5504 214.387 73.7571V110H209.521C208.439 110 207.619 109.832 207.06 109.497C206.5 109.124 206.053 108.453 205.717 107.483L204.543 102.505C203.089 103.848 201.653 105.041 200.236 106.085C198.819 107.092 197.328 107.968 195.762 108.714C194.233 109.422 192.592 109.963 190.84 110.336C189.087 110.708 187.148 110.895 185.023 110.895C182.786 110.895 180.679 110.597 178.703 110C176.764 109.366 175.067 108.415 173.613 107.148C172.159 105.88 171.003 104.295 170.146 102.393C169.325 100.492 168.915 98.2733 168.915 95.7377C168.915 93.5005 169.512 91.3565 170.705 89.3057C171.935 87.2177 173.912 85.3533 176.634 83.7127C179.393 82.0721 182.972 80.7297 187.372 79.6857C191.809 78.6417 197.253 78.0451 203.704 77.8959V73.7571C203.704 69.4691 202.79 66.2624 200.963 64.137C199.136 62.0117 196.452 60.949 192.909 60.949C190.523 60.949 188.509 61.2473 186.869 61.8439C185.265 62.4405 183.867 63.1116 182.674 63.8574C181.518 64.5658 180.493 65.2184 179.598 65.815C178.74 66.4115 177.845 66.7098 176.913 66.7098C176.167 66.7098 175.515 66.5048 174.956 66.0946C174.434 65.6844 174.005 65.1997 173.669 64.6404L171.712 61.1168ZM246.717 81.6433C248.656 81.6433 250.352 81.3823 251.807 80.8602C253.298 80.3382 254.529 79.6111 255.498 78.679C256.505 77.7095 257.251 76.5536 257.735 75.2113C258.257 73.8689 258.518 72.3961 258.518 70.7928C258.518 67.5115 257.512 64.9014 255.498 62.9625C253.522 60.9863 250.595 59.9982 246.717 59.9982C242.876 59.9982 239.949 60.9863 237.936 62.9625C235.96 64.9014 234.972 67.5115 234.972 70.7928C234.972 72.3961 235.214 73.8689 235.699 75.2113C236.221 76.5163 236.966 77.6536 237.936 78.623C238.943 79.5552 240.173 80.3009 241.627 80.8602C243.119 81.3823 244.815 81.6433 246.717 81.6433ZM264.111 112.964C264.111 111.622 263.738 110.559 262.993 109.776C262.247 108.956 261.222 108.322 259.917 107.875C258.649 107.39 257.157 107.054 255.442 106.868C253.727 106.644 251.919 106.476 250.017 106.365C248.153 106.253 246.232 106.159 244.256 106.085C242.28 105.973 240.378 105.787 238.551 105.526C236.612 106.495 235.009 107.67 233.741 109.049C232.511 110.429 231.895 112.051 231.895 113.915C231.895 115.108 232.194 116.227 232.79 117.271C233.424 118.315 234.375 119.21 235.643 119.956C236.948 120.739 238.57 121.335 240.509 121.745C242.485 122.193 244.834 122.417 247.556 122.417C250.241 122.417 252.608 122.174 254.659 121.689C256.71 121.242 258.425 120.589 259.805 119.732C261.222 118.912 262.284 117.923 262.993 116.768C263.738 115.612 264.111 114.344 264.111 112.964ZM275.186 55.3V59.383C275.186 60.7253 274.347 61.5642 272.669 61.8998L266.572 62.7947C267.094 63.9506 267.504 65.1811 267.803 66.4861C268.101 67.7539 268.25 69.0962 268.25 70.5131C268.25 73.3096 267.71 75.8451 266.628 78.1196C265.547 80.3569 264.055 82.2771 262.154 83.8805C260.252 85.4838 257.978 86.7143 255.33 87.5719C252.72 88.4295 249.849 88.8583 246.717 88.8583C244.144 88.8583 241.739 88.5786 239.502 88.0193C238.383 88.6905 237.526 89.4362 236.929 90.2566C236.37 91.0396 236.09 91.8226 236.09 92.6056C236.09 93.9107 236.631 94.8801 237.712 95.514C238.831 96.1479 240.266 96.614 242.019 96.9123C243.809 97.1733 245.841 97.3411 248.115 97.4157C250.427 97.4902 252.757 97.6207 255.107 97.8072C257.493 97.9563 259.823 98.2546 262.098 98.7021C264.41 99.1122 266.442 99.802 268.194 100.771C269.984 101.704 271.42 103.009 272.501 104.687C273.62 106.327 274.179 108.471 274.179 111.119C274.179 113.58 273.564 115.966 272.333 118.278C271.14 120.589 269.387 122.64 267.076 124.43C264.764 126.22 261.949 127.655 258.63 128.737C255.312 129.818 251.546 130.359 247.332 130.359C243.119 130.359 239.446 129.949 236.314 129.128C233.219 128.308 230.628 127.208 228.54 125.828C226.489 124.449 224.941 122.845 223.897 121.018C222.891 119.191 222.387 117.29 222.387 115.313C222.387 112.554 223.245 110.224 224.96 108.322C226.675 106.383 229.043 104.873 232.063 103.792C230.423 103.046 229.118 102.039 228.148 100.771C227.179 99.4664 226.694 97.7512 226.694 95.6259C226.694 94.8056 226.843 93.9666 227.141 93.109C227.44 92.2141 227.887 91.3379 228.484 90.4803C229.118 89.5854 229.882 88.7464 230.777 87.9634C231.709 87.1804 232.772 86.4719 233.965 85.838C231.168 84.272 228.968 82.2026 227.365 79.6298C225.762 77.0197 224.96 73.9808 224.96 70.5131C224.96 67.7166 225.501 65.1997 226.582 62.9625C227.663 60.7253 229.155 58.805 231.056 57.2017C232.995 55.5983 235.289 54.3679 237.936 53.5103C240.621 52.6527 243.548 52.2239 246.717 52.2239C251.639 52.2239 255.871 53.2492 259.413 55.3H275.186ZM316.458 62.9625C316.16 63.4472 315.843 63.8015 315.507 64.0252C315.171 64.2116 314.743 64.3048 314.221 64.3048C313.624 64.3048 312.953 64.0998 312.207 63.6896C311.499 63.2794 310.622 62.832 309.578 62.3473C308.572 61.8625 307.379 61.4151 305.999 61.0049C304.619 60.5948 302.979 60.3897 301.077 60.3897C299.511 60.3897 298.075 60.5948 296.77 61.0049C295.503 61.3778 294.421 61.9185 293.526 62.6269C292.632 63.2981 291.942 64.1184 291.457 65.0879C290.972 66.02 290.73 67.0268 290.73 68.1081C290.73 69.525 291.14 70.6995 291.96 71.6317C292.818 72.5639 293.918 73.3656 295.26 74.0367C296.64 74.7079 298.187 75.3231 299.902 75.8824C301.655 76.4044 303.426 76.9638 305.216 77.5603C307.043 78.1569 308.814 78.8467 310.529 79.6298C312.282 80.3755 313.829 81.3263 315.171 82.4822C316.551 83.6008 317.651 84.9618 318.471 86.5651C319.329 88.1685 319.758 90.126 319.758 92.4378C319.758 95.0852 319.273 97.5462 318.304 99.8207C317.371 102.058 315.973 103.997 314.109 105.637C312.282 107.278 310.007 108.564 307.285 109.497C304.563 110.429 301.45 110.895 297.945 110.895C294.03 110.895 290.413 110.242 287.094 108.937C283.776 107.632 280.998 105.973 278.761 103.96L281.334 99.7647C281.632 99.2427 282.005 98.8512 282.452 98.5902C282.9 98.2919 283.496 98.1427 284.242 98.1427C284.95 98.1427 285.678 98.4038 286.423 98.9258C287.169 99.4478 288.064 100.026 289.108 100.66C290.152 101.256 291.42 101.816 292.911 102.338C294.403 102.822 296.267 103.065 298.504 103.065C300.369 103.065 301.991 102.841 303.37 102.393C304.75 101.909 305.887 101.275 306.782 100.492C307.714 99.6715 308.404 98.7393 308.851 97.6953C309.299 96.6513 309.523 95.5513 309.523 94.3954C309.523 92.9039 309.094 91.6735 308.236 90.704C307.416 89.6972 306.316 88.8396 304.936 88.1312C303.594 87.4227 302.046 86.8075 300.294 86.2855C298.542 85.7635 296.752 85.2042 294.925 84.6076C293.098 84.011 291.308 83.3212 289.555 82.5382C287.803 81.7551 286.237 80.767 284.857 79.5738C283.515 78.3807 282.415 76.9265 281.557 75.2113C280.737 73.4961 280.327 71.408 280.327 68.9471C280.327 66.7471 280.774 64.6404 281.669 62.6269C282.601 60.6134 283.925 58.8423 285.64 57.3135C287.393 55.7848 289.537 54.5729 292.072 53.678C294.645 52.7459 297.572 52.2798 300.853 52.2798C304.619 52.2798 308.012 52.8764 311.033 54.0696C314.09 55.2627 316.7 56.9034 318.863 58.9914L316.458 62.9625Z" fill="#0A0F16"/>
</svg>
