<svg width="531" height="583" viewBox="0 0 531 583" fill="none" xmlns="http://www.w3.org/2000/svg">
<path d="M219.727 302.743C218.365 317.211 218.907 331.796 221.337 346.123C222.682 355.851 227.018 364.921 233.745 372.076C236.76 374.936 240.315 377.166 244.202 378.638C248.088 380.11 252.229 380.793 256.382 380.647C261.587 380.375 266.665 378.952 271.253 376.48C278.493 372.239 284.551 366.246 288.87 359.052C293.613 351.601 297.28 343.517 299.763 335.041L311.602 197.323C306.338 196.221 300.974 195.665 295.595 195.665C281.127 195.057 266.907 199.567 255.435 208.405C244.348 218.102 236.154 230.671 231.756 244.729C225.588 263.639 221.585 282.939 219.727 302.743ZM310.513 406.6C305.713 412.885 300.198 418.591 294.08 423.602C275.86 438.159 253.08 445.808 229.767 445.197C210.654 445.541 191.995 439.36 176.868 427.674C161.024 414.795 149.356 397.506 143.338 377.995C135.79 353.672 133.45 328.031 136.471 302.743C139.89 270.865 149.255 239.91 164.081 211.483C176.532 187.447 194.738 166.866 217.075 151.575C238.329 137.433 263.343 130.007 288.87 130.263C314.128 130.263 333.861 133.799 348.068 140.872C362.248 147.992 376.019 155.897 389.318 164.551L373.5 350.48C372.416 356.35 372.416 362.369 373.5 368.24C374.442 372.46 376.522 376.342 379.514 379.464C382.215 382.262 385.592 384.317 389.318 385.431C396.978 387.775 405.174 387.71 412.797 385.245C420.42 382.78 427.102 378.035 431.94 371.649C442 359.175 449.383 344.763 453.63 329.311C459.525 309.758 462.712 289.489 463.102 269.071C465.123 227.585 459.882 190.961 447.379 159.199C435.785 128.587 414.647 102.518 387.092 84.8465C359.498 66.8819 323.868 57.9153 280.204 57.9469C238.181 57.9469 202.141 68.6341 172.084 90.0086C141.322 112.047 116.983 141.878 101.568 176.438C84.3651 214.773 74.7172 256.066 73.1526 298.054C71.045 330.732 74.0651 363.538 82.1033 395.281C88.5282 420.405 100.686 443.698 117.622 463.335C134.046 481.506 154.754 495.28 177.862 503.401C204.414 512.575 232.367 517.031 260.455 516.566C279.119 516.504 297.73 514.569 316.007 510.789C332.398 507.723 348.484 503.207 364.076 497.291L376.294 554.122C359.416 564.418 340.798 571.544 321.358 575.149C300.925 579.585 280.086 581.886 259.177 582.016C202.631 582.016 154.641 571.549 115.207 550.617C75.9712 529.703 44.7518 496.402 26.4098 455.9C6.74021 413.877 -1.94217 361.262 0.362605 298.054C1.71183 257.593 9.57969 217.614 23.663 179.658C36.5857 144.77 55.9792 112.634 80.8246 84.9412C105.124 58.1019 134.884 36.7711 168.106 22.3807C203.89 7.0955 242.48 -0.519299 281.388 0.027493C336.324 0.027493 382.656 11.2515 420.385 33.6994C457.554 55.3954 487.15 88.0002 505.156 127.09C523.721 166.935 531.914 212.951 529.736 265.14C528.912 287.575 525.576 309.846 519.79 331.537C514.437 352.259 505.735 371.967 494.027 389.882C482.831 406.843 467.873 420.991 450.315 431.226C430.806 441.869 408.835 447.178 386.618 446.618C374.546 446.979 362.529 444.848 351.318 440.358C340.106 435.868 329.939 429.116 321.453 420.523C317.263 416.232 313.591 411.463 310.513 406.316V406.6Z" fill="url(#paint0_linear_4336_4)"/>
<defs>
<linearGradient id="paint0_linear_4336_4" x1="373.598" y1="17.9786" x2="29" y2="880.5" gradientUnits="userSpaceOnUse">
<stop stop-color="#226AD6"/>
<stop offset="0.929783" stop-color="#6696DC"/>
</linearGradient>
</defs>
</svg>
